<svg xmlns="http://www.w3.org/2000/svg" width="130" height="55" viewBox="0 0 130 55">
    <g fill="none" fill-rule="evenodd">
        <g>
            <path fill="#471E48" d="M60.318 5.882c-.545-.142-.975.076-1.211.559-1.234 2.525-1.748 5.285-2.454 7.981-.083.319-.025.723.368.768.271.03.711.051.789-.15 1.027-2.652 2.668-4.844 3.306-7.55.063-.917-.203-1.454-.798-1.608zm31.499 42.425c-.46.684-1.322 1.678-.477 2.388.98.825 1.971-.033 2.718-.804 1.94-2.002 2.772-4.535 3.373-7.654-2.744 1.531-4.134 3.858-5.614 6.07zM80.367 35.59c0 1.967-.03 3.936.014 5.902.022.963-.025 2.294 1.196 2.337 1.206.042 1.275-1.333 1.407-2.256.558-3.939.353-7.808-1.172-11.545-.21-.515-.171-1.245-.9-1.089-.453.098-.55.713-.543 1.24.021 1.804.008 3.607.008 5.41l-.01.001zm7.617-30.877c-1.078-.319-1.589.392-2.046 1.25-1.948 3.652-2.482 7.754-3.615 11.665-.098.34-.183.866.338 1.02.534.156.636-.359.83-.691.61-1.055 1.278-2.084 1.81-3.182 1.314-2.71 2.564-5.45 3.601-7.667.325-1.348-.065-2.142-.918-2.395zM43.739 24.554c-.253-1.234-.631-2.497-1.961-2.856-1.328-.359-2.11.772-2.714 1.673-1.71 2.556-1.71 5.414-.802 8.234.467 1.448 2.718 1.545 3.542.158 1.082-1.824 1.966-3.77 2.023-6.043-.024-.35-.006-.768-.088-1.166zM90.326.585c1.513.877 2.296 2.245 2.164 4.107-.296 4.139-2.037 7.782-3.917 11.316-1.336 2.514-2.534 5.153-4.493 7.295-.864.946-.295 1.387.689 1.643 2.45.641 5.505-.809 6.592-3.149.552-1.188 1.01-2.478 2.312-3.055.84-.372 1.759-.535 2.553.05.83.612.444 1.461.247 2.263-.586 2.399-1.178 4.795-1.692 7.21-.169.792-.19 1.644-.122 2.455.068.816.269 1.683 1.24 1.916.965.23 1.448-.433 1.938-1.137 1.712-2.461 1.815-5.414 2.463-8.2.408-1.757.607-3.627 2.703-4.31.8-.26 1.569-.512 2.303.043.76.576.334 1.346.217 2.054l-2.17 13.11c3.37-1.235 4.456-4.403 6.73-6.364 2.274-1.96 3.45.432 2.208 2.198-1.241 1.766-1.499 3.016-5.315 5.87-3.336 2.495-4.808 5.421-5.76 9.113-.66 2.56-1.674 4.927-3.457 6.977-1.45 1.67-3.146 2.566-5.232 2.734-1.784.144-3.712.243-4.834-1.527-1.137-1.797-.58-3.704.408-5.38 1.837-3.119 4.114-5.893 6.764-8.344 1.047-.97 2.052-1.987 3.126-3.03-.394-.256-.539-.426-.638-.403-5.395 1.292-7.548-.397-7.697-6.01-.016-.561.436-1.542-.56-1.568-1.112-.03-2.31.095-3.327.514-.865.357-.09 1.163.128 1.678 1.893 4.494 1.72 8.995.092 13.493-.973 2.691-3.292 4.548-5.293 4.37-1.985-.177-3.591-2.094-4.313-5.052-.574-2.353-.59-4.743-.486-7.13.065-1.494-.295-1.727-1.606-1.021-1.424.765-2.953 1.344-4.63 1.283-1.637-.061-3.1-.373-3.471-2.347-.21-1.117-.769-1.008-1.526-.543-1.035.635-2.075 1.271-3.151 1.83-4.306 2.234-7.369.93-8.802-3.764-.31-1.016-.632-2.101-.591-3.14.107-2.74-1.61-4.118-3.517-5.443-.488-.34-1.05-.737-1.532-.384-.537.393-.13.986.038 1.547 1.247 4.162-1.137 9.983-4.736 11.622-2.326 1.058-4.64 1.014-6.564-.786-.946-.885-1.386-.73-2.343-.048-3.927 2.797-8.216 2.975-10.75.601-2.01-1.883-2.323-4.455-2.564-6.998-.447-4.706.738-9.165 2.242-13.542.626-1.821.971-3.656.817-5.571-.058-.728-.13-1.512-1.019-1.786-.824-.254-1.464.15-1.948.7-1.408 1.596-2.593 3.345-3.476 5.32-2.92 6.531-5.234 13.29-7.359 20.12l-.112.364c-.205.665-.438 1.309-1.05 1.743-.895.637-1.802 1.036-2.937.584-1.242-.496-1.655-1.446-1.727-2.701-.139-2.432.452-4.75 1.06-7.057C6.114 21.321 6.905 15.62 7.231 9.845c.037-.645.267-1.456-.335-1.84-.787-.503-1.299.358-1.873.736-1.14.753-1.673 1.997-2.264 3.159-.455.892-1.057 1.266-1.946.875-.764-.335-.918-.994-.756-1.842.57-2.98 2.041-5.423 4.468-7.086 2.957-2.026 6.533-.252 7.1 3.423.422 2.737-.038 5.41-.955 7.998-.125.352-.065 2.633.955.985 1.02-1.647 1.285-3.478 2.103-5.309 1.228-2.752 3.29-5.431 5.976-7.32 3.705-2.604 7.478-.942 7.827 3.659.34 4.489-.662 8.845-1.674 13.175-.127.253-.329 2.254-.471 3.132-.407.325-.491 5.084.213 7.022.698 1.92 1.955 2.472 3.82 1.96 2.379-.654 3.701-2.422 3.846-5.038.206-3.725 1.303-7.046 4.845-8.8 3.554-1.76 7.035-1.32 10.347.865.968.638 1.864 1.488 3.153 1.629.67-2.264-.525-2.985-2.344-3.292-1.008-.171-2.383-.205-2.214-1.683.15-1.312 1.518-1.193 2.37-1.03 2.584.494 3.4-.784 4.003-3.116.817-3.16 1.704-6.368 3.894-8.962 2.414-2.858 4.896-2.473 6.238.99.685 1.767.818 3.522.136 5.3-.758 1.981-1.558 3.948-2.56 6.477 1.583 0 2.975.007 4.365-.004.934-.006 1.622.321 1.62 1.38-.001 1.063-.529 1.698-1.64 1.699-1.455.002-2.91.005-4.367.006-2.87.004-4.636 1.618-4.842 4.528-.117 1.644-.179 3.3-.129 4.945.1 3.36 2.053 4.277 5.087 3.083 4.87-1.916 6.29-5.98 7.093-10.568.303-1.737 1.085-2.858 2.856-3.194 1.908-.36 2.578.268 2.153 2.246-.604 2.814-1.384 5.593-1.896 8.424-.26 1.434-1.5 3.404.82 4.171 1.439.475 4.014-2.225 4.157-4.057.49-6.272 1.741-12.412 3.527-18.402 1.066-3.576 2.355-7.224 5.817-9.377 1.513-.941 3.057-1.085 4.571-.207zM71.386 9.34c1.627 0 2.946 1.344 2.946 3.002 0 1.658-1.319 3.002-2.947 3.002-1.627 0-2.947-1.344-2.947-3.002 0-1.658 1.32-3.002 2.947-3.002z"/>
            <ellipse cx="118.865" cy="12.494" fill="#F18322" rx="10.965" ry="11.169"/>
        </g>
        <g fill="#FFF" transform="translate(112.373 11)">
            <ellipse cx="1.953" cy="1.65" rx="1.953" ry="1.65"/>
            <ellipse cx="7.161" cy="1.65" rx="1.953" ry="1.65"/>
            <ellipse cx="12.369" cy="1.65" rx="1.953" ry="1.65"/>
        </g>
    </g>
</svg>
